PathFileType	4	(x/y/z)	A01_PREF_T0017.trc
DataRate	CameraRate	NumFrames	NumMarkers	Units	OrigDataRate	OrigDataStartFrame	OrigNumFrames
240	240	10	48	mm	240	232	309
Frame#	Time	TOP_HEAD			R_AC			L_AC			R_ASIS			L_ASIS			R_PSIS			L_PSIS			SACRAL			L_IC			R_IC			L_GT			R_GT			R_LAT_KNEE			R_MED_KNEE			L_MED_KNEE			L_LAT_KNEE			R_TOE			L_TOE			R_1ST_MET			L_1ST_MET			L_5TH_MET			R_5TH_MET			R_LAT_ANK			R_MED_ANK			L_MED_ANK			L_LAT_ANK			L_HEEL_SUP			R_HEEL_SUP			L_HEEL_LAT			R_HEEL_LAT			L_HEEL_MED			R_HEEL_MED			R_LL_PROX_POST			R_LL_PROX_ANT			R_LL_DIST_ANT			R_LL_DIST_POST			R_THIGH_PROX_POST			R_THIGH_PROX_ANT			R_THIGH_DIST_ANT			R_THIGH_DIST_POST			L_PROS_PROX_ANT			L_PROS_PROX_POST			L_PROS_DIST_POST			L_PROS_DIST_ANT			L_THIGH_PROX_ANT			L_THIGH_PROX_POST			L_THIGH_DIST_POST			L_THIGH_DIST_ANT			
		X1	Y1	Z1	X2	Y2	Z2	X3	Y3	Z3	X4	Y4	Z4	X5	Y5	Z5	X6	Y6	Z6	X7	Y7	Z7	X8	Y8	Z8	X9	Y9	Z9	X10	Y10	Z10	X11	Y11	Z11	X12	Y12	Z12	X13	Y13	Z13	X14	Y14	Z14	X15	Y15	Z15	X16	Y16	Z16	X17	Y17	Z17	X18	Y18	Z18	X19	Y19	Z19	X20	Y20	Z20	X21	Y21	Z21	X22	Y22	Z22	X23	Y23	Z23	X24	Y24	Z24	X25	Y25	Z25	X26	Y26	Z26	X27	Y27	Z27	X28	Y28	Z28	X29	Y29	Z29	X30	Y30	Z30	X31	Y31	Z31	X32	Y32	Z32	X33	Y33	Z33	X34	Y34	Z34	X35	Y35	Z35	X36	Y36	Z36	X37	Y37	Z37	X38	Y38	Z38	X39	Y39	Z39	X40	Y40	Z40	X41	Y41	Z41	X42	Y42	Z42	X43	Y43	Z43	X44	Y44	Z44	X45	Y45	Z45	X46	Y46	Z46	X47	Y47	Z47	X48	Y48	Z48	

232	0.96563	722.47	1756.8	347.14	485.06	1559.7	575.04	463.29	1567.2	112.4	480.11	1096.9	540.51	471.69	1048	187.02	258.36	1103.3	423.31	264.79	1101.5	291.49	246.34	1072.2	355.42	441.36	1165.5	150.38	449.33	1195.1	554.12	415.21	968.57	144.75	419.57	984.72	578.68	451.83	576.08	500.04	484.71	581.13	371.45	571.33	566.82	324.84	535.34	602.66	174.34	602.25	66.257	377.79	402.37	80.355	189.23	515.75	56.407	334.31	330.94	97.35	258.2	284.22	125.8	140.07	490.53	45.188	470.35	381.4	116.2	450.38	385.73	126.57	347.88	277.61	240.38	267.85	238.88	256.53	207.73	149.93	261.42	265.41	277.89	93.225	395.72	134.67	238.48	231.96	284.58	67.43	429.02	150.48	223.28	292.21	286.01	66.44	367.4	347.01	408.37	495.14	416.08	392.19	513.14	412.53	319.12	492.15	356.62	326.73	481.65	391.03	839.77	552.18	456.74	865.09	563.31	469.89	774.95	551.06	406.35	752.62	537.64	527.56	508.17	177.5	481.22	539.52	176.44	441.67	490.24	186.13	490.39	466.03	185.04	522.7	845.11	172.33	454.49	834.1	152.73	484.31	763.56	158.89	547.28	775.16	175.01
233	0.96981	727.51	1757.8	346.9	490.22	1560.9	574.99	467.91	1568.2	112.37	484.72	1097.8	540.81	476.84	1049.2	187.3	263.19	1104.5	423.05	269.86	1102.5	291.28	251.29	1073.3	355.14	446.48	1166.6	150.44	454.17	1196.3	554.36	420.75	969.72	144.83	423.8	985.69	578.73	453.23	576.84	500.13	486.35	581.68	371.59	578.28	569.3	325.63	542.59	604.17	174.77	602.35	66.178	377.81	419.62	79.428	189.53	515.91	56.398	334.39	347.38	95.169	257.92	300.99	122.49	139.38	490.65	45.169	470.39	381.92	116.87	450.54	386.32	127.32	348.09	291.26	237.14	266.95	252.62	252.45	206.5	163.14	255.71	263.44	278.33	94.452	395.87	148.62	232.39	229.93	284.84	68.558	429.15	164.29	217.59	290.33	286.14	67.679	367.5	347.92	409.4	495.08	416.91	393.04	513.26	413.22	319.98	492.3	357.36	327.72	481.67	394.26	841.04	552.16	460.32	865.89	563.37	472.76	775.66	551.12	409.05	753.75	537.63	536.59	509.57	178.01	489.68	540	176.57	451.04	489.97	186.06	500.22	466.72	185.35	528.92	846.85	172.68	460.8	835.47	152.88	490.97	765.1	159.13	553.84	777.04	175.47
234	0.97399	732.55	1758.9	346.66	495.36	1562.2	574.92	472.53	1569.2	112.33	489.3	1098.7	541.11	482.01	1050.4	187.59	268.02	1105.6	422.73	274.93	1103.5	291.01	256.24	1074.3	354.81	451.63	1167.6	150.49	458.96	1197.4	554.59	426.31	970.83	144.92	428.01	986.66	578.76	454.62	577.6	500.23	488	582.25	371.73	585.1	571.7	326.44	549.7	605.62	175.24	602.44	66.104	377.83	436.99	78.599	189.84	516.08	56.392	334.48	363.96	93.021	257.67	317.91	119.22	138.72	490.77	45.148	470.43	382.46	117.55	450.71	386.93	128.09	348.3	305.01	233.85	266.09	266.48	248.33	205.32	176.51	249.88	261.54	278.77	95.693	396.02	162.75	226.2	227.97	285.1	69.705	429.29	178.29	211.79	288.5	286.25	68.943	367.6	348.83	410.44	495.02	417.73	393.91	513.39	413.91	320.85	492.45	358.09	328.73	481.69	397.46	842.31	552.12	463.89	866.7	563.43	475.61	776.38	551.17	411.75	754.9	537.6	545.52	510.95	178.57	498.04	540.43	176.74	460.36	489.66	186.02	509.97	467.39	185.71	535.1	848.55	173.05	467.05	836.8	153.04	497.56	766.61	159.38	560.33	778.87	175.96
235	0.97817	737.58	1759.9	346.41	500.49	1563.4	574.85	477.16	1570.2	112.29	493.84	1099.6	541.4	487.2	1051.5	187.88	272.84	1106.7	422.37	280	1104.6	290.71	261.18	1075.4	354.43	456.82	1168.6	150.54	463.72	1198.6	554.81	431.87	971.93	145	432.19	987.65	578.79	455.99	578.38	500.32	489.64	582.83	371.87	591.78	574.02	327.28	556.66	607.01	175.75	602.54	66.034	377.85	454.47	77.88	190.17	516.25	56.386	334.57	380.69	90.917	257.44	334.97	116.01	138.1	490.9	45.124	470.47	383	118.25	450.88	387.55	128.88	348.52	318.86	230.5	265.28	280.46	244.17	204.19	190.04	243.95	259.69	279.2	96.944	396.18	177.04	219.91	226.08	285.35	70.864	429.44	192.45	205.9	286.74	286.33	70.227	367.7	349.74	411.5	494.96	418.54	394.8	513.51	414.59	321.73	492.61	358.83	329.75	481.71	400.66	843.59	552.08	467.45	867.51	563.48	478.45	777.11	551.22	414.43	756.05	537.57	554.34	512.3	179.16	506.3	540.81	176.95	469.61	489.3	186.03	519.64	468.04	186.1	541.25	850.21	173.43	473.27	838.1	153.2	504.1	768.07	159.66	566.75	780.64	176.48
236	0.98235	742.61	1760.9	346.16	505.61	1564.5	574.77	481.8	1571.2	112.24	498.36	1100.5	541.68	492.41	1052.7	188.17	277.65	1107.8	421.96	285.08	1105.6	290.37	266.12	1076.5	354.01	462.05	1169.6	150.58	468.45	1199.7	555.02	437.45	972.99	145.07	436.35	988.63	578.8	457.36	579.18	500.41	491.28	583.41	372.01	598.33	576.25	328.15	563.49	608.33	176.31	602.62	65.97	377.87	472.04	77.279	190.52	516.42	56.381	334.66	397.55	88.867	257.24	352.17	112.87	137.53	491.03	45.098	470.51	383.56	118.96	451.05	388.18	129.67	348.74	332.79	227.12	264.5	294.55	239.99	203.12	203.74	237.92	257.91	279.64	98.202	396.35	191.51	213.55	224.27	285.6	72.034	429.59	206.79	199.92	285.03	286.4	71.529	367.81	350.64	412.57	494.9	419.34	395.7	513.64	415.26	322.63	492.78	359.56	330.78	481.73	403.85	844.86	552.02	471	868.32	563.51	481.26	777.84	551.26	417.1	757.21	537.53	563.05	513.63	179.78	514.46	541.13	177.21	478.79	488.9	186.08	529.24	468.67	186.52	547.36	851.81	173.84	479.45	839.36	153.38	510.57	769.49	159.96	573.1	782.34	177.05
237	0.98653	747.63	1761.8	345.91	510.72	1565.7	574.69	486.45	1572.2	112.18	502.86	1101.4	541.96	497.64	1053.8	188.46	282.45	1108.9	421.51	290.17	1106.5	289.98	271.06	1077.5	353.55	467.3	1170.6	150.61	473.14	1200.9	555.21	443.03	974.03	145.14	440.5	989.62	578.8	458.72	579.98	500.5	492.93	584	372.15	604.74	578.38	329.04	570.18	609.59	176.91	602.71	65.911	377.88	489.7	76.806	190.89	516.59	56.376	334.76	414.53	86.885	257.06	369.49	109.8	137	491.18	45.069	470.56	384.13	119.68	451.22	388.82	130.47	348.98	346.81	223.72	263.77	308.75	235.79	202.11	217.59	231.82	256.19	280.09	99.461	396.51	206.15	207.12	222.54	285.85	73.209	429.74	221.31	193.88	283.39	286.46	72.844	367.91	351.55	413.65	494.84	420.14	396.62	513.77	415.93	323.54	492.94	360.3	331.83	481.75	407.03	846.14	551.94	474.53	869.13	563.54	484.07	778.57	551.29	419.77	758.37	537.48	571.66	514.94	180.43	522.53	541.4	177.51	487.92	488.45	186.16	538.75	469.27	186.97	553.43	853.37	174.26	485.58	840.58	153.56	516.97	770.86	160.28	579.37	783.97	177.65
238	0.99071	752.66	1762.7	345.66	515.81	1566.8	574.59	491.11	1573.1	112.12	507.34	1102.3	542.22	502.89	1054.8	188.74	287.24	1110	421.03	295.26	1107.5	289.56	275.99	1078.6	353.06	472.57	1171.6	150.64	477.79	1202	555.38	448.62	975.04	145.21	444.62	990.61	578.78	460.07	580.79	500.59	494.57	584.6	372.29	611.01	580.42	329.95	576.73	610.76	177.55	602.79	65.858	377.89	507.44	76.471	191.28	516.77	56.37	334.85	431.64	84.979	256.91	386.93	106.83	136.51	491.33	45.038	470.6	384.71	120.41	451.39	389.46	131.28	349.21	360.93	220.3	263.08	323.06	231.6	201.16	231.62	225.64	254.54	280.54	100.72	396.68	220.96	200.64	220.88	286.12	74.386	429.89	236	187.78	281.81	286.54	74.166	368.03	352.46	414.74	494.78	420.93	397.54	513.9	416.61	324.46	493.11	361.04	332.89	481.77	410.22	847.4	551.85	478.03	869.93	563.56	486.86	779.31	551.32	422.43	759.53	537.42	580.15	516.2	181.12	530.49	541.61	177.85	496.98	487.95	186.28	548.19	469.85	187.46	559.45	854.87	174.71	491.67	841.76	153.75	523.31	772.19	160.62	585.57	785.54	178.28
239	0.99489	757.68	1763.7	345.41	520.89	1567.9	574.49	495.78	1574.1	112.05	511.81	1103.2	542.47	508.17	1055.9	189.02	292.04	1111	420.51	300.37	1108.5	289.1	280.93	1079.6	352.53	477.86	1172.5	150.65	482.42	1203.1	555.53	454.22	976.01	145.27	448.73	991.59	578.76	461.43	581.6	500.67	496.23	585.2	372.43	617.15	582.35	330.88	583.15	611.86	178.22	602.87	65.81	377.9	525.25	76.28	191.69	516.94	56.365	334.95	448.86	83.163	256.8	404.48	103.96	136.08	491.48	45.004	470.65	385.3	121.16	451.57	390.11	132.09	349.45	375.13	216.88	262.44	337.48	227.41	200.27	245.8	219.4	252.97	281	101.97	396.85	235.95	194.12	219.31	286.4	75.562	430.04	250.86	181.63	280.3	286.62	75.49	368.14	353.38	415.83	494.71	421.73	398.47	514.02	417.3	325.39	493.28	361.79	333.95	481.79	413.4	848.66	551.75	481.51	870.73	563.56	489.63	780.04	551.34	425.08	760.69	537.36	588.53	517.43	181.83	538.37	541.75	178.23	505.98	487.4	186.44	557.54	470.4	187.97	565.44	856.31	175.17	497.73	842.9	153.94	529.58	773.46	160.98	591.7	787.03	178.95
240	0.99907	762.69	1764.5	345.16	525.95	1569	574.38	500.46	1575	111.97	516.26	1104	542.7	513.46	1056.9	189.28	296.82	1112.1	419.96	305.47	1109.4	288.61	285.87	1080.6	351.97	483.16	1173.4	150.66	487.03	1204.2	555.66	459.82	976.95	145.32	452.82	992.57	578.71	462.78	582.43	500.75	497.88	585.8	372.57	623.17	584.18	331.82	589.44	612.87	178.92	602.94	65.767	377.92	543.11	76.242	192.14	517.12	56.358	335.05	466.18	81.445	256.73	422.14	101.2	135.69	491.64	44.969	470.69	385.9	121.92	451.75	390.77	132.9	349.7	389.42	213.46	261.85	351.99	223.24	199.44	260.15	213.12	251.46	281.47	103.22	397.01	251.11	187.58	217.81	286.69	76.736	430.18	265.9	175.45	278.86	286.74	76.81	368.25	354.3	416.93	494.65	422.54	399.41	514.15	417.99	326.32	493.45	362.53	335.02	481.81	416.59	849.91	551.63	484.97	871.52	563.54	492.4	780.77	551.36	427.73	761.85	537.28	596.81	518.62	182.57	546.16	541.84	178.64	514.92	486.81	186.63	566.81	470.91	188.52	571.37	857.69	175.66	503.74	843.99	154.13	535.78	774.67	161.37	597.74	788.45	179.65
241	1.0032	767.7	1765.4	344.9	531	1570	574.27	505.15	1576	111.89	520.71	1104.9	542.92	518.77	1057.8	189.53	301.61	1113.1	419.38	310.59	1110.3	288.1	290.81	1081.6	351.38	488.47	1174.3	150.65	491.61	1205.3	555.76	465.43	977.86	145.37	456.89	993.54	578.66	464.14	583.25	500.83	499.55	586.39	372.7	629.06	585.89	332.77	595.61	613.79	179.66	603.01	65.729	377.93	561.02	76.364	192.62	517.29	56.351	335.15	483.59	79.837	256.7	439.89	98.552	135.37	491.81	44.931	470.74	386.5	122.68	451.93	391.42	133.71	349.94	403.79	210.07	261.3	366.61	219.1	198.68	274.66	206.81	250.03	281.95	104.46	397.17	266.45	181.03	216.39	287	77.905	430.32	281.1	169.26	277.5	286.88	78.123	368.37	355.24	418.03	494.59	423.35	400.35	514.27	418.7	327.26	493.62	363.29	336.1	481.83	419.77	851.15	551.5	488.4	872.3	563.52	495.17	781.49	551.36	430.38	763	537.19	604.98	519.77	183.33	553.85	541.85	179.08	523.79	486.16	186.85	576	471.4	189.09	577.25	859	176.17	509.71	845.04	154.34	541.92	775.82	161.77	603.72	789.79	180.37
